<svg xmlns="http://www.w3.org/2000/svg" version="1.1" xmlns:xlink="http://www.w3.org/1999/xlink" xmlns:svgjs="http://svgjs.dev/svgjs" width="1000" height="1000" viewBox="0 0 1000 1000"><rect width="1000" height="1000" fill="#ffffff"></rect><g transform="matrix(0.7,0,0,0.7,150,218.95000000000005)"><svg viewBox="0 0 448 360" data-background-color="#ffffff" preserveAspectRatio="xMidYMid meet" height="803" width="1000" xmlns="http://www.w3.org/2000/svg" xmlns:xlink="http://www.w3.org/1999/xlink"><g id="tight-bounds" transform="matrix(1,0,0,1,0,0)"><svg viewBox="0 0 448 360" height="360" width="448"><g><svg></svg></g><g><svg viewBox="0 0 448 360" height="360" width="448"><g><path xmlns="http://www.w3.org/2000/svg" d="M193.855 44.683c1.378 0 2.494 1.116 2.495 2.494 0 1.378-1.116 2.494-2.495 2.495h-23.846l-17.167 17.167c-0.973 0.973-2.551 0.973-3.53 0-0.973-0.973-0.973-2.551 0-3.529l13.644-13.645h-40.378c-11.518 0-19.151 2.688-23.815 8.113-4.739 5.519-6.66 14.056-6.66 25.63 0 0.069 0 0.137-0.006 0.206l0.212 36.692 14.692-14.692c0.973-0.973 2.551-0.973 3.53 0 0.973 0.973 0.973 2.551 0 3.53l-18.178 18.178c0.206 35.832 0.193 71.358-0.013 107.19 25.486 25.2 50.617 50.312 75.811 75.791h25.38c1.378 0 2.494 1.116 2.495 2.495 0 1.378-1.116 2.494-2.495 2.494h-20.448l25.942 26.241 0.006-0.006c8.188 8.188 15.577 12.859 22.824 13.413 7.146 0.543 14.442-2.956 22.586-11.093l28.555-28.555h-20.722c-1.378 0-2.494-1.116-2.495-2.494 0-1.378 1.116-2.494 2.495-2.495h25.711l16.625-16.625c0.973-0.973 2.551-0.973 3.529 0 0.973 0.973 0.973 2.551 0 3.53l-13.101 13.102h40.377c11.518 0 19.151-2.688 23.815-8.113 4.739-5.519 6.66-14.056 6.66-25.63h0.013l-0.212-36.898-16.014 16.014c-0.973 0.973-2.551 0.973-3.53 0-0.973-0.973-0.973-2.551 0-3.53l19.5-19.5c-0.206-35.832-0.193-71.358 0.013-107.19-25.486-25.2-50.617-50.312-75.811-75.791h-26.147c-1.378 0-2.494-1.116-2.495-2.495 0-1.378 1.116-2.494 2.495-2.494h21.215l-25.824-26.123c-0.044-0.037-0.081-0.075-0.124-0.112-8.188-8.188-15.577-12.859-22.824-13.413-7.146-0.543-14.442 2.956-22.586 11.093l-28.555 28.555h18.858zM122.578 44.683h45.367l32.078-32.078c9.248-9.248 17.81-13.195 26.484-12.534 8.568 0.649 16.956 5.824 25.985 14.854 0.05 0.05 0.094 0.094 0.137 0.143l29.278 29.615h43.508c13.071 0 21.919 3.268 27.594 9.871 5.6 6.517 7.864 16.101 7.864 28.867 0 0.081-0.006 0.156-0.012 0.23l-0.225 39.742 28.43 28.112 0.006-0.006c9.03 9.03 14.206 17.411 14.854 25.985 0.661 8.674-3.293 17.236-12.534 26.484l-30.768 30.768 0.237 41.843h0.012c0 12.765-2.27 22.35-7.864 28.867-5.675 6.604-14.524 9.872-27.594 9.871h-45.366l-32.078 32.078c-9.248 9.248-17.81 13.195-26.484 12.534-8.568-0.649-16.956-5.824-25.985-14.854l0.006-0.006-29.421-29.758h-43.509c-13.071 0-21.919-3.268-27.594-9.872-5.6-6.517-7.864-16.101-7.863-28.866h0.012l0.231-39.972-28.293-27.969c-0.05-0.044-0.1-0.087-0.143-0.137-9.03-9.03-14.206-17.411-14.854-25.985-0.661-8.674 3.293-17.236 12.534-26.484l30.768-30.768-0.237-41.607c-0.006-0.075-0.012-0.156-0.012-0.23 0-12.765 2.27-22.35 7.864-28.867 5.675-6.604 14.524-9.872 27.594-9.871zM87.682 179.997l-0.274-47.724-27.276 27.276c-8.138 8.138-11.636 15.44-11.094 22.587 0.549 7.246 5.226 14.642 13.413 22.823 0.037 0.037 0.081 0.081 0.113 0.125l24.837 24.551 0.281-49.644zM92.303 241.483l-0.2 35.09h0.013c0 11.58 1.921 20.117 6.66 25.63 4.664 5.432 12.297 8.113 23.815 8.113h38.576l-33.55-33.936-35.308-34.903zM325.415 49.672h-38.575l33.549 33.936 35.308 34.902 0.2-34.884c-0.006-0.069-0.006-0.137-0.007-0.205 0-11.58-1.921-20.117-6.66-25.63-4.664-5.432-12.297-8.113-23.815-8.113zM360.599 130.352l-0.281 49.645 0.274 47.724 27.276-27.276c8.138-8.138 11.636-15.44 11.094-22.587-0.549-7.252-5.226-14.642-13.413-22.824l0.006-0.006-24.956-24.669z" fill="#aaaaaa" fill-rule="nonzero" stroke="none" stroke-width="1" stroke-linecap="butt" stroke-linejoin="miter" stroke-miterlimit="10" stroke-dasharray="" stroke-dashoffset="0" font-family="none" font-weight="none" font-size="none" text-anchor="none" style="mix-blend-mode: normal" data-fill-palette-color="tertiary"></path></g><g transform="matrix(1,0,0,1,112,152.29567545102472)"><svg viewBox="0 0 224 55.408649097950565" height="55.408649097950565" width="224"><g><svg viewBox="0 0 224.00000000000003 55.40864909795057" height="55.408649097950565" width="224"><g transform="matrix(1,0,0,1,0,28.49653956170046)"><svg viewBox="0 0 224.00000000000003 26.91210953625011" height="26.91210953625011" width="224.00000000000003"><g><svg viewBox="0 0 224.00000000000003 26.91210953625011" height="26.91210953625011" width="224.00000000000003"><g><svg viewBox="0 0 224.00000000000003 26.91210953625011" height="26.91210953625011" width="224.00000000000003"><g transform="matrix(1,0,0,1,0,0)"><svg width="224.00000000000003" viewBox="3.5788235664367676 -23.683366775512695 420.7342834472656 50.54842758178711" height="26.91210953625011" data-palette-color="#89939e"><path d="M10.143 13.46v0c-0.43-0.057-0.792-0.212-1.089-0.467-0.302-0.255-0.425-0.598-0.368-1.027v0l4.168-31.516-8.228-1.088c-0.39-0.052-0.674-0.244-0.852-0.576-0.17-0.339-0.229-0.706-0.177-1.103v0c0.052-0.39 0.204-0.726 0.457-1.009 0.259-0.282 0.584-0.397 0.973-0.345v0l19.649 2.598c0.43 0.057 0.721 0.243 0.874 0.56 0.159 0.324 0.213 0.68 0.161 1.07v0c-0.052 0.397-0.199 0.744-0.44 1.042-0.234 0.298-0.567 0.419-0.996 0.362v0l-8.179-1.082-4.168 31.516c-0.057 0.43-0.271 0.727-0.643 0.893-0.372 0.166-0.752 0.223-1.142 0.172zM27.334 15.642v0c-0.424-0.05-0.789-0.2-1.095-0.45-0.3-0.25-0.424-0.59-0.374-1.021v0l3.921-33.431c0.047-0.397 0.243-0.673 0.591-0.826 0.354-0.16 0.743-0.215 1.167-0.166v0c0.391 0.046 0.746 0.188 1.068 0.428 0.322 0.232 0.459 0.547 0.412 0.944v0l-1.722 14.68 14.193 1.664 1.722-14.679c0.047-0.397 0.243-0.673 0.59-0.827 0.354-0.16 0.743-0.215 1.168-0.165v0c0.391 0.046 0.746 0.188 1.067 0.427 0.322 0.232 0.459 0.547 0.413 0.945v0l-3.921 33.431c-0.05 0.43-0.26 0.731-0.63 0.902-0.369 0.171-0.749 0.234-1.14 0.189v0c-0.424-0.05-0.789-0.2-1.095-0.451-0.3-0.25-0.424-0.59-0.373-1.02v0l1.871-15.951-14.193-1.665-1.871 15.951c-0.05 0.43-0.26 0.731-0.629 0.903-0.369 0.171-0.749 0.234-1.14 0.188zM73.069 20.519l-17.514-1.733c-0.358-0.035-0.683-0.175-0.974-0.418-0.291-0.243-0.415-0.58-0.372-1.012v0l3.31-33.446c0.039-0.398 0.226-0.688 0.558-0.87 0.333-0.181 0.678-0.254 1.037-0.218v0l17.514 1.733c0.425 0.042 0.721 0.229 0.89 0.56 0.168 0.332 0.236 0.66 0.204 0.985v0c-0.043 0.431-0.186 0.792-0.429 1.083-0.25 0.29-0.57 0.416-0.962 0.377v0l-15.743-1.558-1.338 13.524 7.722 0.764c0.398 0.039 0.688 0.219 0.871 0.539 0.183 0.313 0.256 0.665 0.217 1.056v0c-0.03 0.299-0.158 0.584-0.386 0.856-0.222 0.28-0.549 0.398-0.98 0.356v0l-7.722-0.765-1.348 13.624 15.743 1.558c0.391 0.039 0.682 0.218 0.871 0.538 0.183 0.313 0.254 0.685 0.211 1.116v0c-0.035 0.358-0.168 0.683-0.398 0.976-0.23 0.292-0.557 0.417-0.982 0.375zM98.23 22.781v0c-0.432-0.031-0.821-0.158-1.166-0.383-0.345-0.225-0.57-0.538-0.676-0.94v0l-7.346-34.125c-0.057-0.138-0.081-0.273-0.072-0.406v0c0.018-0.259 0.135-0.488 0.35-0.687 0.208-0.199 0.465-0.338 0.771-0.416 0.3-0.079 0.583-0.109 0.849-0.091v0c0.293 0.021 0.567 0.107 0.823 0.259 0.25 0.151 0.398 0.376 0.444 0.673v0l6.393 30.889 6.181-18.048c0.164-0.423 0.414-0.702 0.751-0.839 0.344-0.143 0.713-0.2 1.105-0.172v0c0.392 0.028 0.732 0.135 1.02 0.323 0.281 0.18 0.457 0.49 0.525 0.929v0l3.675 18.747 10.634-29.683c0.12-0.286 0.308-0.486 0.564-0.602 0.255-0.116 0.53-0.163 0.822-0.142v0c0.333 0.024 0.625 0.094 0.877 0.213 0.259 0.119 0.481 0.291 0.665 0.518 0.178 0.226 0.257 0.469 0.239 0.729v0c-0.009 0.133-0.035 0.265-0.078 0.395v0l-12.035 32.751c-0.161 0.383-0.428 0.661-0.801 0.836-0.373 0.174-0.793 0.245-1.258 0.211v0c-0.426-0.03-0.821-0.158-1.186-0.384-0.365-0.226-0.58-0.539-0.645-0.938v0l-3.455-17.739-5.921 17.074c-0.128 0.385-0.385 0.664-0.771 0.838-0.393 0.173-0.819 0.243-1.279 0.21zM125.516 24.352v0c-0.266-0.014-0.543-0.084-0.831-0.213-0.294-0.135-0.531-0.314-0.713-0.537-0.189-0.223-0.277-0.465-0.264-0.724v0c0.007-0.133 0.029-0.249 0.068-0.347v0l12.021-33.002c0.153-0.386 0.414-0.66 0.783-0.822 0.376-0.168 0.777-0.241 1.202-0.219v0c0.459 0.023 0.874 0.145 1.243 0.364 0.369 0.219 0.595 0.511 0.677 0.875v0l8.562 34.049c0.028 0.102 0.04 0.202 0.035 0.302v0c-0.013 0.26-0.125 0.491-0.336 0.694-0.204 0.203-0.459 0.364-0.765 0.482-0.3 0.118-0.616 0.169-0.949 0.152v0c-0.26-0.013-0.503-0.092-0.729-0.238-0.226-0.145-0.362-0.366-0.407-0.661v0l-1.941-7.719-13.622-0.692-2.663 7.484c-0.115 0.288-0.289 0.493-0.522 0.615-0.24 0.121-0.523 0.174-0.849 0.157zM137.516-6.279l-7.034 19.599 11.995 0.609zM154.792 25.735v0c-0.426-0.015-0.802-0.135-1.128-0.359-0.319-0.225-0.471-0.553-0.456-0.987v0l1.171-33.589c0.016-0.466 0.191-0.784 0.524-0.952 0.339-0.168 0.722-0.245 1.149-0.231v0c0.393 0.014 0.736 0.132 1.028 0.356 0.286 0.223 0.556 0.506 0.811 0.849 0.248 0.336 0.465 0.72 0.65 1.154v0l12.425 26.759 0.954-27.373c0.015-0.433 0.189-0.734 0.522-0.903 0.339-0.168 0.722-0.245 1.149-0.23v0c0.393 0.014 0.76 0.117 1.1 0.309 0.34 0.192 0.503 0.504 0.487 0.937v0l-1.173 33.64c-0.015 0.433-0.2 0.75-0.553 0.951-0.354 0.201-0.727 0.295-1.121 0.281v0c-0.46-0.016-0.866-0.227-1.218-0.633-0.346-0.412-0.644-0.853-0.895-1.322v0l-12.799-27.212-0.953 27.323c-0.015 0.433-0.2 0.75-0.554 0.951-0.354 0.201-0.727 0.295-1.12 0.281zM191.925 26.705l-8.748-0.146c-0.427-0.007-0.778-0.13-1.054-0.367-0.276-0.231-0.411-0.53-0.406-0.897v0l0.562-33.706c0.006-0.333 0.15-0.611 0.434-0.833 0.284-0.229 0.639-0.339 1.066-0.332v0l8.748 0.146c1.946 0.032 3.697 0.408 5.252 1.128 1.555 0.719 2.769 1.86 3.644 3.421 0.881 1.562 1.3 3.612 1.258 6.151v0l-0.251 15.028c-0.043 2.573-0.53 4.625-1.463 6.157-0.926 1.531-2.177 2.631-3.755 3.298-1.578 0.667-3.34 0.985-5.287 0.952zM185.508-6.527l-0.501 30.096 6.969 0.116c2.206 0.037 3.946-0.544 5.219-1.743 1.273-1.192 1.932-3.092 1.976-5.698v0l0.25-15.028c0.043-2.573-0.552-4.48-1.785-5.72-1.233-1.234-2.953-1.869-5.159-1.907v0zM228.674 26.845l-17.6 0.02c-0.36 0-0.697-0.106-1.01-0.319-0.314-0.213-0.471-0.536-0.472-0.969v0l-0.038-33.61c0-0.4 0.156-0.707 0.469-0.921 0.313-0.214 0.65-0.321 1.01-0.321v0l17.6-0.02c0.427 0 0.74 0.156 0.941 0.469 0.2 0.313 0.301 0.633 0.301 0.96v0c0 0.433-0.106 0.807-0.319 1.12-0.22 0.314-0.526 0.471-0.92 0.471v0l-15.82 0.018 0.016 13.59 7.76-0.009c0.4 0 0.707 0.149 0.92 0.449 0.214 0.293 0.321 0.636 0.322 1.03v0c0 0.3-0.099 0.597-0.299 0.89-0.193 0.3-0.506 0.451-0.94 0.451v0l-7.76 0.009 0.016 13.69 15.82-0.018c0.393 0 0.7 0.149 0.92 0.449 0.214 0.293 0.321 0.656 0.321 1.09v0c0 0.36-0.099 0.697-0.299 1.01-0.2 0.314-0.513 0.471-0.939 0.471zM253.783 26.456v0c-0.36 0.006-0.693-0.168-1-0.523-0.3-0.361-0.536-0.737-0.709-1.127v0l-7.919-14.694-6.279 0.11 0.266 15.167c0.008 0.433-0.16 0.76-0.503 0.979-0.343 0.219-0.711 0.332-1.105 0.34v0c-0.427 0.007-0.808-0.093-1.145-0.3-0.33-0.208-0.499-0.528-0.507-0.962v0l-0.588-33.655c-0.006-0.333 0.103-0.609 0.325-0.825 0.23-0.217 0.524-0.346 0.884-0.386v0l8.748-0.153c1.946-0.034 3.731 0.231 5.355 0.797 1.63 0.565 2.941 1.539 3.932 2.921 0.998 1.383 1.518 3.327 1.562 5.834v0c0.036 2.04-0.272 3.725-0.922 5.057-0.65 1.332-1.556 2.361-2.716 3.088-1.154 0.734-2.455 1.243-3.904 1.528v0l7.865 14.505c0.102 0.092 0.163 0.197 0.185 0.317 0.015 0.113 0.024 0.22 0.026 0.319v0c0.005 0.26-0.081 0.525-0.256 0.795-0.175 0.263-0.412 0.474-0.709 0.633-0.291 0.152-0.586 0.23-0.886 0.235zM237.585-6.436l0.242 13.838 6.719-0.117c2.213-0.039 3.993-0.607 5.341-1.704 1.348-1.09 2-2.889 1.956-5.395v0c-0.043-2.473-0.757-4.224-2.142-5.253-1.385-1.029-3.184-1.525-5.397-1.486v0zM278.536 25.587l-15.861 0.533c-0.36 0.012-0.7-0.083-1.021-0.286-0.32-0.203-0.488-0.521-0.502-0.954v0l-1.13-33.641c-0.015-0.433 0.138-0.745 0.459-0.936 0.327-0.191 0.704-0.294 1.13-0.308v0c0.393-0.013 0.766 0.064 1.119 0.233 0.353 0.168 0.536 0.469 0.55 0.902v0l1.072 31.912 14.082-0.473c0.393-0.013 0.678 0.134 0.856 0.441 0.177 0.308 0.272 0.645 0.284 1.011v0c0.013 0.393-0.058 0.749-0.215 1.068-0.156 0.319-0.431 0.485-0.823 0.498zM293.243 25.163v0c-1.938 0.094-3.699-0.168-5.284-0.786-1.578-0.618-2.868-1.677-3.868-3.176-0.994-1.507-1.553-3.542-1.677-6.106v0l-1.192-24.642c-0.019-0.4 0.129-0.704 0.446-0.912 0.323-0.216 0.698-0.334 1.124-0.355v0c0.426-0.021 0.811 0.061 1.153 0.245 0.336 0.177 0.513 0.466 0.533 0.865v0l1.192 24.641c0.126 2.597 0.844 4.474 2.155 5.633 1.311 1.158 3.068 1.684 5.272 1.577v0c2.237-0.108 3.953-0.802 5.146-2.082 1.193-1.279 1.727-3.217 1.601-5.814v0l-1.193-24.641c-0.019-0.4 0.133-0.704 0.457-0.913 0.317-0.216 0.688-0.334 1.114-0.354v0c0.433-0.021 0.817 0.061 1.153 0.244 0.336 0.177 0.513 0.466 0.532 0.865v0l1.193 24.642c0.124 2.564-0.226 4.643-1.05 6.238-0.831 1.589-2.022 2.768-3.573 3.537-1.545 0.769-3.289 1.2-5.234 1.294zM319.275 23.674v0c-2.102 0.14-3.929-0.063-5.482-0.609-1.559-0.538-2.769-1.199-3.629-1.984-0.861-0.785-1.31-1.473-1.35-2.065v0c-0.018-0.266 0.037-0.55 0.164-0.852 0.126-0.309 0.3-0.561 0.521-0.757 0.221-0.195 0.444-0.3 0.67-0.315v0c0.333-0.022 0.686 0.162 1.059 0.551 0.373 0.383 0.863 0.828 1.472 1.336 0.614 0.5 1.411 0.925 2.39 1.274 0.979 0.349 2.243 0.473 3.792 0.37v0c1.543-0.102 2.85-0.446 3.921-1.032 1.064-0.578 1.852-1.389 2.364-2.432 0.505-1.042 0.708-2.319 0.608-3.828v0c-0.105-1.577-0.485-2.831-1.142-3.763-0.656-0.932-1.487-1.672-2.493-2.22-1.011-0.541-2.107-0.996-3.287-1.365-1.18-0.369-2.371-0.735-3.571-1.096-1.194-0.368-2.298-0.856-3.314-1.464-1.016-0.614-1.867-1.45-2.551-2.506-0.679-1.064-1.075-2.451-1.189-4.161v0c-0.12-1.809 0.111-3.311 0.694-4.506 0.582-1.195 1.367-2.155 2.354-2.882 0.994-0.727 2.09-1.271 3.289-1.631 1.199-0.36 2.374-0.578 3.524-0.655v0c0.925-0.061 1.874-0.051 2.849 0.031 0.981 0.089 1.893 0.235 2.735 0.44 0.836 0.212 1.522 0.48 2.058 0.806 0.536 0.325 0.82 0.721 0.85 1.186v0c0.015 0.226-0.028 0.483-0.129 0.77-0.095 0.287-0.235 0.543-0.42 0.77-0.178 0.232-0.434 0.36-0.766 0.381v0c-0.293 0.019-0.712-0.11-1.259-0.387-0.546-0.278-1.282-0.543-2.207-0.796-0.925-0.253-2.113-0.331-3.564-0.234v0c-1.184 0.079-2.313 0.327-3.388 0.746-1.081 0.419-1.941 1.061-2.578 1.925-0.637 0.871-0.907 2.045-0.809 3.521v0c0.087 1.317 0.464 2.358 1.13 3.122 0.659 0.765 1.49 1.361 2.494 1.789 1.004 0.434 2.095 0.816 3.273 1.146 1.178 0.336 2.366 0.722 3.564 1.156 1.204 0.428 2.318 0.999 3.341 1.713 1.022 0.707 1.871 1.666 2.546 2.877 0.675 1.211 1.078 2.801 1.208 4.771v0c0.155 2.335-0.164 4.28-0.955 5.836-0.785 1.555-1.936 2.748-3.451 3.576-1.515 0.829-3.294 1.311-5.336 1.447zM343.512 21.492v0c-0.432 0.036-0.819-0.039-1.162-0.225-0.35-0.185-0.543-0.494-0.579-0.925v0l-2.618-31.682-8.272 0.683c-0.392 0.032-0.71-0.095-0.955-0.382-0.238-0.295-0.374-0.641-0.407-1.04v0c-0.032-0.392 0.045-0.753 0.232-1.083 0.193-0.33 0.486-0.512 0.878-0.544v0l19.753-1.633c0.432-0.036 0.756 0.085 0.973 0.361 0.224 0.283 0.352 0.62 0.384 1.012v0c0.033 0.399-0.037 0.769-0.209 1.111-0.166 0.341-0.465 0.53-0.896 0.566v0l-8.222 0.679 2.618 31.682c0.036 0.432-0.11 0.768-0.438 1.01-0.328 0.241-0.688 0.378-1.08 0.41zM378.938 18.453v0c-1.837 0.191-3.57 0.022-5.2-0.505-1.63-0.528-2.982-1.513-4.057-2.957-1.082-1.449-1.756-3.45-2.022-6.003v0l-1.583-15.248c-0.262-2.526-0.006-4.607 0.769-6.243 0.775-1.636 1.906-2.879 3.392-3.73 1.487-0.851 3.162-1.374 5.025-1.568v0c2.168-0.225 4.044-0.038 5.628 0.562 1.59 0.592 2.85 1.47 3.783 2.633 0.932 1.163 1.475 2.484 1.628 3.963v0c0.081 0.782-0.004 1.321-0.255 1.615-0.252 0.288-0.639 0.459-1.163 0.513v0c-0.59 0.061-1.021-0.018-1.291-0.238-0.271-0.22-0.423-0.492-0.457-0.817v0c-0.088-0.52-0.26-1.116-0.517-1.786-0.251-0.671-0.647-1.293-1.19-1.867-0.536-0.574-1.276-1.02-2.22-1.338-0.944-0.311-2.139-0.391-3.584-0.241v0c-2.294 0.238-3.986 1.024-5.074 2.357-1.087 1.34-1.498 3.289-1.232 5.848v0l1.584 15.248c0.269 2.586 1.083 4.422 2.442 5.507 1.353 1.086 3.209 1.506 5.57 1.262v0c1.479-0.154 2.621-0.48 3.427-0.98 0.813-0.5 1.407-1.074 1.782-1.723 0.382-0.65 0.618-1.338 0.71-2.064 0.093-0.72 0.158-1.38 0.197-1.981v0c-0.018-0.427 0.095-0.761 0.338-1.001 0.243-0.246 0.609-0.395 1.1-0.446v0c0.557-0.058 0.989 0.038 1.297 0.288 0.307 0.25 0.502 0.769 0.584 1.558v0c0.154 1.479-0.115 2.891-0.807 4.236-0.685 1.345-1.75 2.481-3.195 3.408-1.445 0.934-3.248 1.514-5.409 1.738zM404.929 15.477v0c-1.9 0.23-3.662 0.093-5.287-0.409-1.619-0.503-2.971-1.468-4.057-2.894-1.086-1.433-1.784-3.424-2.091-5.973v0l-1.839-15.219c-0.305-2.522-0.1-4.605 0.614-6.249 0.715-1.644 1.791-2.903 3.231-3.775 1.439-0.872 3.125-1.425 5.058-1.658v0c1.926-0.233 3.702-0.098 5.326 0.404 1.619 0.503 2.977 1.467 4.077 2.892 1.106 1.424 1.811 3.397 2.115 5.918v0l1.839 15.22c0.308 2.548 0.095 4.649-0.638 6.302-0.728 1.646-1.818 2.906-3.271 3.78-1.459 0.875-3.151 1.428-5.077 1.661zM404.567 12.478v0c2.191-0.265 3.835-1.078 4.933-2.439 1.098-1.362 1.491-3.333 1.179-5.914v0l-1.839-15.219c-0.309-2.555-1.158-4.363-2.549-5.424-1.39-1.054-3.18-1.449-5.371-1.184v0c-2.197 0.266-3.829 1.074-4.895 2.425-1.065 1.358-1.443 3.314-1.134 5.868v0l1.839 15.219c0.312 2.581 1.147 4.404 2.504 5.469 1.358 1.065 3.135 1.464 5.333 1.199zM422.384 13.26v0c-0.654 0.087-1.224-0.072-1.709-0.479-0.484-0.4-0.765-0.894-0.843-1.482v0c-0.087-0.654 0.052-1.228 0.417-1.72 0.364-0.499 0.873-0.792 1.527-0.879v0c0.588-0.078 1.133 0.074 1.635 0.458 0.501 0.377 0.795 0.893 0.882 1.547v0c0.078 0.588-0.074 1.14-0.455 1.655-0.381 0.522-0.866 0.821-1.454 0.9z" opacity="1" transform="matrix(1,0,0,1,0,0)" fill="#89939e" class="undefined-text-0" data-fill-palette-color="primary" id="text-0"></path></svg></g></svg></g></svg></g></svg></g><g transform="matrix(1,0,0,1,98.53552993808626,0)"><svg viewBox="0 0 26.928940123827505 26.912109536250114" height="26.912109536250114" width="26.928940123827505"><g><svg xmlns="http://www.w3.org/2000/svg" xmlns:xlink="http://www.w3.org/1999/xlink" version="1.1" x="0" y="0" viewBox="0 0 100 99.9375" xml:space="preserve" height="26.912109536250114" width="26.928940123827505" class="icon-icon-0" data-fill-palette-color="accent" id="icon-0"><path d="M100 0C93.933 0 86.238 3.957 78.938 9.188L63.813 24.219 45.094 22.469 47.125 20.438C47.404 20.158 47.404 19.717 47.125 19.438L45.281 17.594C45.002 17.314 44.561 17.314 44.281 17.594L39.906 21.969 30.313 21.063 32.5 18.875C32.779 18.595 32.779 18.123 32.5 17.844L30.656 16.031C30.377 15.752 29.936 15.752 29.656 16.031L25.094 20.594 9.281 19.125 4.281 24.469 21.344 29.781 36.25 35.281 46.344 41.625 32.156 55.719C27.362 62.053 23.458 68.141 20.469 73.188L2.281 71.781 0 74.063 15.188 82.719C14.283 84.487 13.781 85.531 13.781 85.531 13.781 85.531 14.834 85.058 16.594 84.188L24.938 99.938 27.063 97.813 26.25 78.969C31.32 76.024 37.42 72.178 43.781 67.375L57.906 53.219 63.875 62.563 69.531 77.125 75.25 95.344 80.438 90.219 78.781 72.219 82.313 68.688C82.591 68.408 82.591 67.936 82.313 67.656L80.469 65.844C80.188 65.564 79.747 65.564 79.469 65.844L78.281 67.031 77.656 60.281 82.313 55.625C82.591 55.346 82.591 54.903 82.313 54.625L80.469 52.781C80.188 52.502 79.747 52.502 79.469 52.781L77.156 55.094 75.375 35.781 90.844 20.281C96.054 13.174 100 5.733 100 0z" fill="#89939e" data-fill-palette-color="accent"></path></svg></g></svg></g><g></g></svg></g></svg></g></svg></g><defs></defs></svg><rect width="448" height="360" fill="none" stroke="none" visibility="hidden"></rect></g></svg></g></svg>